<svg width="256" height="256" viewBox="0 0 256 256" fill="none" xmlns="http://www.w3.org/2000/svg">
<path fill-rule="evenodd" clip-rule="evenodd" d="M256 128C256 230.4 230.4 256 128 256C25.6 256 1.28171e-05 230.4 2.03434e-06 128C6.51038e-06 25.6 25.6 -5.59506e-06 128 -5.59506e-06C230.4 -6.71407e-06 256 25.6 256 128ZM80 52.9604L115.103 47L115.103 104.923C122.735 98.0458 133.265 94.9891 144.102 94.9891C167.148 94.9891 176 110.12 176 133.656L176 208.085L140.744 208.085L140.744 138.699C140.744 128.307 138.76 121.429 131.892 121.429C124.261 121.429 115.103 132.127 115.103 149.397L115.103 208.085L80 208.085L80 52.9604Z" fill="white"/>
</svg>
